# xmcd CD database file
#
# Track frame offsets:
#	150
#	42160
#	56265
#	93345
#	108262
#	129295
#	163412
#	182150
#
# Disc length: 2757 seconds
#
# Revision: 0
# Processed by: cddbd v1.5.1PL0 Copyright (c) Steve Scherf et al.
# Submitted via: CDex 1.51
#
DISCID=610ac308
DTITLE=Keshavan Maslak - Loved by Millions
DYEAR=1994
DGENRE=Jazz
TTITLE0=Compulsive lust
TTITLE1=Lovely friends
TTITLE2=Loved by millions
TTITLE3=Dida
TTITLE4=Bukowski in love
TTITLE5=Romance in the big city
TTITLE6=When you look at me, I want to vomit
TTITLE7=A thrill a minute
EXTD=YEAR: 1994
EXTT0=
EXTT1=
EXTT2=
EXTT3=
EXTT4=
EXTT5=
EXTT6=
EXTT7=
PLAYORDER=
